<svg width="29" height="28" viewBox="0 0 29 28" fill="none" xmlns="http://www.w3.org/2000/svg">
<path d="M0.235956 13.9883C-0.221075 14.6328 -0.0101376 15.207 0.833612 15.207H2.4508C3.08361 21.1719 8.22814 25.9062 14.3336 25.9062C17.9078 25.9062 21.1422 24.2773 23.3453 21.7461C23.7789 21.2422 23.7203 20.6094 23.2633 20.2812C22.8063 19.9531 22.2438 20.0703 21.8688 20.5039C20.0524 22.6016 17.357 23.9141 14.3336 23.9141C9.22424 23.9141 5.06408 20.1289 4.46642 15.207H6.21252C7.04455 15.207 7.25549 14.6328 6.81017 14L4.18517 10.2617C3.81017 9.72266 3.24767 9.71094 2.86096 10.2617L0.235956 13.9883ZM5.33361 6.16016C4.8883 6.66406 4.94689 7.28516 5.41564 7.61328C5.87267 7.94141 6.42346 7.83594 6.81017 7.40234C8.6383 5.31641 11.3336 3.99219 14.3336 3.99219C19.4313 3.99219 23.5914 7.77734 24.2008 12.7109H22.4547C21.6227 12.7109 21.4117 13.2734 21.857 13.918L24.482 17.6562C24.857 18.1953 25.4195 18.207 25.8063 17.6562L28.4195 13.9297C28.8883 13.2734 28.6656 12.7109 27.8219 12.7109H26.2164C25.5719 6.74609 20.4391 2 14.3336 2C10.7594 2 7.53674 3.61719 5.33361 6.16016Z" fill="white"/>
</svg>
